<svg class="svg-icon" style="width: 1em;height: 1em;vertical-align: middle;fill: #007DB6;overflow: hidden;" viewBox="0 0 1024 1024" version="1.1" xmlns="http://www.w3.org/2000/svg"><path d="M512 238.92992c-175.13472 0-327.66976 109.99808-409.6 273.07008 81.93024 163.10272 234.46528 273.05984 409.6 273.05984S839.66976 675.10272 921.6 512c-81.93024-163.06176-234.46528-273.07008-409.6-273.07008zM512 716.8c-131.79904 0-256.26624-77.63968-331.8272-204.8C255.73376 384.83968 380.20096 307.2 512 307.2s256.26624 77.63968 331.8272 204.8C768.26624 639.16032 643.79904 716.8 512 716.8z"  /><path d="M512 358.4c-84.86912 0-153.6 68.73088-153.6 153.6 0 84.8384 68.73088 153.6 153.6 153.6 84.82816 0 153.6-68.7616 153.6-153.6 0-84.86912-68.77184-153.6-153.6-153.6z m0 238.94016A85.31968 85.31968 0 0 1 426.67008 512c0-47.13472 38.1952-85.32992 85.32992-85.32992s85.32992 38.1952 85.32992 85.32992A85.31968 85.31968 0 0 1 512 597.34016z"  /></svg>