<svg xmlns="http://www.w3.org/2000/svg" viewBox="0 0 360 360"><path fill="#fbfbfb" stroke="#fbfbfb" d="M171.863 47.502c-8.618 2.774-18.783 11.758-21.071 18.623-.27.809-2.444.352-7.012-1.476-20.525-8.212-41.508 3.354-46.195 25.463-.476 2.247-1.22 2.702-5.319 3.259-21.208 2.88-34.803 21.187-30.279 40.773 1.361 5.893 4.69 12.349 7.835 15.195 2.029 1.836 2.028 1.84-1.304 6.205-4.602 6.029-5.983 10.624-6.002 19.977-.038 18.678 13.684 32.719 32.156 32.906l7.172.073-.508 3c-.28 1.65-.673 3.543-.874 4.206-.7 2.311 1.635 13.564 3.623 17.46 8.546 16.752 29.612 23.019 46.626 13.871l5.21-2.802 4.227 4.02c16.764 15.948 46.445 10.089 54.399-10.738l1.649-4.318 4.556 2.015c6.579 2.911 19.679 2.203 26.788-1.447 11.834-6.076 17.96-16.485 17.96-30.517V194l4-.001c6.123-.001 15.253-4.819 20.779-10.964 13.053-14.519 10.568-38.444-5.115-49.236-2.183-1.502-2.235-1.761-.801-3.953 1.908-2.916 4.637-13.187 4.637-17.451 0-13.874-11.288-28.206-24.974-31.709-5.284-1.352-5.322-1.391-7.538-7.511C251.406 59.142 240.284 51.5 224.94 51.5c-6.982 0-9.564.451-13.709 2.392l-5.106 2.391-3.305-2.781c-7.599-6.394-21.414-9.072-30.957-6m1.131 4.432c-7.93 2.412-15.57 9.685-18.516 17.625-2.346 6.323-2.107 6.139-4.744 3.66-16.294-15.307-47.609-2.16-47.712 20.031L102 98h-6.322c-22.385 0-36.285 21.531-26.818 41.543 1.573 3.324 4.302 7.257 6.066 8.742l3.207 2.698-3.883 4.759c-13.061 16.004-8.423 37.972 9.75 46.181 5.1 2.304 15.658 2.789 20.902.961 4.133-1.44 4.629-.811 2.54 3.228-7.11 13.749 1.965 34.209 17.455 39.354 9.833 3.266 20.667.979 29.142-6.152 2.45-2.062 3.424-2.426 3.764-1.406 1.101 3.305 8.178 9.632 13.697 12.247 16.872 7.995 36.927-2.227 40.95-20.873l.695-3.217 5.377 3.034c9.791 5.526 21.898 4.726 31.276-2.068 10.343-7.492 14.813-24.548 9.188-35.058-1.194-2.23-1.288-2.196 5.558-1.995 21.435.63 36.212-22.997 26.461-42.308-2.522-4.994-8.315-10.943-12.524-12.861l-2.411-1.098 1.981-2.783c13.142-18.456 2.769-44.03-18.9-46.597-4.814-.57-4.933-.666-5.432-4.388-2.556-19.061-24.148-29.914-42.014-21.118l-6.574 3.236-3.22-3.148c-6.872-6.717-19.644-9.8-28.917-6.979m-29.902 202.227c-13.326 9.144-8.02 28.224 7.85 28.224 19.43 0 20.667-28.805 1.294-30.161-4.781-.334-6.303-.012-9.144 1.937m2.328 3.724C136.176 263.522 140.192 278 151 278c10.873 0 14.804-14.25 5.514-19.991-4.05-2.504-7.134-2.538-11.094-.124m-15.497 26.038c-3.93 3.93-4.119 10.502-.429 14.888 7.385 8.776 21.881 1.059 18.597-9.901-2.431-8.114-12.325-10.83-18.168-4.987m3.532 3.532c-4.332 4.331-1.745 10.545 4.39 10.545 5.71 0 8.237-6.983 3.966-10.961-2.894-2.696-5.368-2.573-8.356.416m-19 12c-4.77 4.769-2.479 12.497 4.2 14.173 5.373 1.349 11.322-4.6 9.973-9.973-1.676-6.679-9.404-8.97-14.173-4.2m3.116 3.116c-3.03 3.031-.799 6.883 3.624 6.256 2.649-.376 3.67-4.08 1.759-6.382-1.557-1.876-3.424-1.832-5.383.126" fill-rule="evenodd"/><path fill="#d7d8d8" stroke="#d7d8d8" d="M175.344 46.994c-9.018 1.887-18.801 9.021-22.539 16.438-1.128 2.237-2.166 4.201-2.308 4.365-.141.163-2.041-.634-4.222-1.771-19.264-10.041-42.987 1.062-47.771 22.358L97.355 93.5l-6.09.59c-26.27 2.544-38.754 32.89-22.199 53.964l2.792 3.554-2.464 3.148c-16.608 21.22-1.269 53.35 25.587 53.596l6.664.061-.42 7.544c-.819 14.684 7.7 27.854 21.345 33.002 10.199 3.847 24.278 1.77 31.604-4.662 1.506-1.322 2.03-1.077 5.197 2.428 15.481 17.136 45.283 12.137 54.711-9.178l1.941-4.388 5.464 1.921c23.352 8.207 49.067-13.377 43.726-36.704l-.944-4.124 5.228-.54c27.595-2.848 38.83-39.171 17.832-57.654l-4.239-3.731 2.431-5.913c3.206-7.798 3.354-17.999.377-25.957C282.153 90.448 268.908 80 259.962 80c-1.079 0-1.962-.433-1.962-.962 0-6.818-9.612-19.991-17.439-23.9-10-4.994-25.136-4.826-32.227.36-1.547 1.131-2.306.9-5.591-1.702-7.225-5.722-18.812-8.598-27.399-6.802m-1.552 4.35c-9.379 2.64-17.743 10.704-20.05 19.329l-1.118 4.181-4.14-2.973c-18.616-13.369-43.938-2.215-46.953 20.682l-.667 5.062h-6.183c-25.836 0-38.79 31.363-20.62 49.926l3.964 4.051-3.106 2.949c-22.895 21.741 2.643 59.695 32.266 47.953 1.51-.599 1.474-.112-.344 4.664-10.587 27.821 23.454 52.535 45.899 33.323l4.021-3.443 2.816 4.063c14.251 20.565 47.707 13.695 52.895-10.861.822-3.891.236-3.831 6.001-.609 10.353 5.786 24.229 4.028 33.419-4.234 9.739-8.756 12.422-21 7.446-33.97-.442-1.15.632-1.437 5.377-1.437 28.836 0 40.899-36.565 17.496-53.032-2.591-1.823-4.896-3.459-5.122-3.635-.225-.177.32-1.127 1.212-2.113 3.51-3.878 6.067-11.571 6.056-18.22-.023-15.135-10.628-26.885-26.607-29.481-3.255-.529-3.751-.966-3.76-3.314-.015-4.081-4.291-12.439-8.536-16.684-9.337-9.338-25.485-11.061-36.106-3.853l-3.63 2.463-3.609-3.516c-7.125-6.942-18.82-9.945-28.317-7.271M144 253.79c-13.81 7.549-8.684 28.203 7 28.203 11.289 0 18.276-11.288 13.377-21.612-3.447-7.263-13.31-10.454-20.377-6.591m-.6 5.61c-6.106 6.106-3.783 16.296 4.218 18.505 11.431 3.156 19.331-10.156 10.982-18.505-2.787-2.787-4.157-3.4-7.6-3.4-3.443 0-4.813.613-7.6 3.4m-13 25c-3.827 3.827-4.413 7.741-1.89 12.62 4.623 8.939 19.49 5.477 19.49-4.539 0-10.4-10.472-15.209-17.6-8.081m2.6 2.6c-5.097 5.097 1.023 14.162 7.322 10.847 2.938-1.546 3.645-2.789 3.663-6.442.029-5.833-6.813-8.577-10.985-4.405m-18.077 12.923c-3.272 3.273-3.705 6.516-1.322 9.918 3.658 5.222 11.029 4.708 13.967-.973 4.272-8.26-6.038-15.552-12.645-8.945m2.277 2.277c-3.884 3.884 1.727 9.986 5.796 6.304 2.412-2.184 2.533-3.832.433-5.933-1.872-1.871-4.568-2.032-6.229-.371" fill-rule="evenodd"/><path fill="#171a1a" stroke="#171a1a" d="M171.5 48.186c-8.764 3.342-18.587 12.329-20.111 18.399l-.56 2.231-4.664-2.407c-19.816-10.223-45.01 2.247-47.905 23.713l-.489 3.623-6.272.503c-15.818 1.27-28.182 14.055-29.256 30.252-.662 9.973 1.527 16.211 9.101 25.937.51.656-.569 3.182-2.732 6.397-14.443 21.462-.355 49.759 25.388 50.995l7.5.36.012 9.155c.037 26.425 27.973 42.462 49.692 28.525l4.765-3.058 4.457 4.457c16.041 16.041 44.797 10.867 53.122-9.558 1.627-3.992 2.285-4.685 3.952-4.159 13.012 4.112 15.981 4.262 25.093 1.271 14.402-4.728 22.895-17.067 22.256-32.333l-.349-8.322 5.232-.653c9.931-1.24 18.827-7.578 24.582-17.514 4.455-7.69 4.701-21.606.524-29.534-4.031-7.65-10.255-13.65-13.352-12.873-2.859.717-3.171-.37-.904-3.152 1.412-1.734 1.52-1.749 1.011-.139-.969 3.063 1.292.832 3.669-3.62 3.275-6.135 3.243-21.286-.058-27.477-4.927-9.238-12.06-15.139-22.027-18.223-4.878-1.509-5.731-2.148-6.248-4.677-3.82-18.673-27.159-29.968-45.292-21.918l-5.862 2.603-3.638-2.858c-8.139-6.395-22.269-9.137-30.637-5.946m2.294.634c-.939.374 2.801.68 8.311.68s8.978-.293 7.706-.65c-3.075-.866-13.869-.885-16.017-.03m-8.848 4.005c-5.362 3.407-10.433 9.012-12.391 13.697l-1.44 3.447-6.308-2.984c-3.666-1.734-7.773-2.931-9.807-2.859l-3.5.124 4 .705c5.293.932 11.436 3.636 14.236 6.267 1.978 1.858 2.264 1.91 2.264.412 0-5.153 8.512-15.747 15.701-19.541 2.089-1.102 3.325-2.024 2.745-2.049-.58-.024-3.055 1.227-5.5 2.781m8.193-1.678c-8.103 2.332-17.242 10.982-19.341 18.308-.637 2.225-1.273 4.203-1.413 4.396-.139.193-1.746-.759-3.569-2.116-18.26-13.589-45.172-1.893-47.522 20.652l-.532 5.113-6.631.055c-25.756.216-38.653 31.644-20.521 50.006l3.89 3.939-3.31 3.408c-11.676 12.02-10.539 31.573 2.503 43.053 7.172 6.313 19.242 8.619 28.973 5.536 2.149-.681 2.154-.654.603 3.658-9.976 27.736 21.451 51.702 45.353 34.586 5.281-3.782 5.698-3.916 6.654-2.138 1.835 3.413 9.655 10.341 13.48 11.944 16.587 6.948 37.724-3.783 40.772-20.701l.658-3.653 4.657 2.397c15.887 8.179 33.463 2.45 41.671-13.582 2.48-4.845 3.126-15.683 1.259-21.16l-1.481-4.348 6.215-.071c28.791-.329 40.256-38.055 16.408-53.993l-4.585-3.064 2.364-3.436c12.069-17.546 2.142-41.678-18.977-46.131-4.944-1.042-5.861-1.587-6.319-3.762-4.336-20.554-25.304-31.12-43.263-21.803l-5.244 2.721L200.88 57c-7.836-6.195-18.635-8.473-27.741-5.853m23.179 1.262c2.1 1.291 5.032 3.51 6.516 4.932l2.699 2.585 5.874-2.963c3.231-1.63 5.249-2.958 4.484-2.951-.765.007-3.296 1.101-5.624 2.432-2.604 1.489-4.474 2.03-4.86 1.405-.774-1.252-11.01-7.861-12.109-7.818-.439.017.92 1.087 3.02 2.378M226 53.989c9.885.807 15.04 3.049 20.806 9.049 4.148 4.317 8.184 11.481 8.209 14.572.025 3 1.207 4.05 5.438 4.829 18.291 3.367 30.756 24.997 23.656 41.048-1.173 2.652-1.909 5.047-1.634 5.321 1.598 1.599 4.023-7.973 4.005-15.808-.038-16.072-10.3-28.624-25.776-31.528-3.21-.602-3.817-1.179-4.704-4.472-4.019-14.927-16.402-24.196-31.865-23.853l-6.635.148 8.5.694M121.5 64.99c-1.245.529.077.638 3.5.29 3.025-.308 5.688-.722 5.917-.92.861-.744-7.501-.184-9.417.63m-6.5 2.746C107.624 72.547 99.933 82.977 100.057 88c.02.825.852-.584 1.848-3.131 2.517-6.436 6.502-11.342 12.222-15.048 2.68-1.737 4.873-3.307 4.873-3.489 0-.718-1.617-.151-4 1.404M99 92.363c0 2.189-.481 2.402-6.51 2.886-7.498.602-15.69 4.279-20.335 9.127-3.426 3.577-8.193 12.149-8.076 14.523.043.881.792-.424 1.663-2.899 3.774-10.719 17.404-20 29.373-20 4.761 0 4.885-.076 4.885-3 0-1.65-.225-3-.5-3s-.5 1.063-.5 2.363m-35.86 33.705c-.192 7.653 2.153 14.814 6.712 20.497l3.84 4.786-3.707 5.292c-10.729 15.316-6.75 35.574 8.941 45.525 2.456 1.558 4.897 2.832 5.425 2.832.527 0-1.698-1.72-4.946-3.823-15.859-10.265-19.443-31.862-7.519-45.298l3.722-4.195-3.317-3.592c-4.999-5.411-7.455-11.323-8.277-19.919-.696-7.278-.741-7.386-.874-2.105m221.474 10.618c4.327 3.91 8.12 9.284 9.813 13.905.788 2.15 1.464 3.104 1.503 2.119.164-4.173-7.726-15.583-12.317-17.812-1.389-.675-1.046-.062 1.001 1.788m11.566 23.382c-.402 12.416-5.943 21.801-16.565 28.059-2.813 1.658-3.99 2.696-2.615 2.309 11.077-3.122 20.725-18.255 19.744-30.968l-.384-4.968-.18 5.568m-25.43 31.594c.688.278 1.813.278 2.5 0 .688-.277.125-.504-1.25-.504s-1.937.227-1.25.504m-9.034 2.361c.448 1.713.703 1.801 1.657.571.62-.799 2.252-1.648 3.627-1.887 1.604-.279 1.011-.483-1.656-.571-3.71-.121-4.1.082-3.628 1.887m1.48 9.049c-.72 24.158-24.166 38.657-45.179 27.937-3.157-1.611-4.017-1.747-4.017-.639 0 7.47-11.035 19.727-20.953 23.274-2.195.785-2.785 1.281-1.547 1.303 5.892.101 16.964-9.198 20.934-17.583 2.803-5.919 2.91-5.97 8.296-3.949 21.541 8.084 44.186-7.877 43.008-30.315l-.346-6.6-.196 6.572m-176.575 2.881c.248.248 3.919.698 8.159 1 7.578.538 7.716.596 8.214 3.469.504 2.91.51 2.905 1.55-1l1.045-3.922h-9.71c-5.34 0-9.507.204-9.258.453m15.631 11.547c.011 2.2.216 2.982.455 1.738.239-1.244.23-3.044-.02-4s-.446.062-.435 2.262m.85 6.185c-.432 9.237 13.314 23.7 23.627 24.857 3.398.381 3.474.343.771-.387-11.772-3.181-20.853-12.275-23.563-23.595-.54-2.258-.759-2.487-.835-.875m51.92 16.789c-2.083 2.509-8.163 5.867-12.973 7.164-3.029.817-3.714 1.246-2.049 1.285 2.372.055 10.557-3.468 14.181-6.103 1.429-1.04 2.445-.508 6.783 3.549 6.73 6.295 12.718 8.859 21.52 9.215l7.016.284-6.604-.752c-10.646-1.213-18.706-5.373-23.784-12.278-2.445-3.326-3.018-3.656-4.09-2.364m-22.772 9.215c.963.252 2.537.252 3.5 0 .963-.251.175-.457-1.75-.457s-2.713.206-1.75.457m12.174 4.276c-13.926 7.078-8.96 28.035 6.643 28.035 9.895 0 17.416-11.121 13.637-20.166-3.337-7.987-12.813-11.664-20.28-7.869m1.781.37c-5.946 2.175-9.91 9.093-8.751 15.273.739 3.94 5.958 10.394 8.4 10.388.982-.002.311-.818-1.664-2.022-12.113-7.385-3.885-26.662 9.807-22.975 4.005 1.079 8.943 5.878 9.082 8.828.044.926.294 1.145.561.491 2.334-5.727-9.907-12.735-17.435-9.983m-3.022 4.494c-9.574 8.944 1.081 24.74 12.653 18.756 8.267-4.275 8.636-16.771.603-20.431-4.623-2.106-9.925-1.437-13.256 1.675M164 267.018c0 2.858-4.32 10.088-6.849 11.462-1.458.792-2.149 1.458-1.536 1.48 3.439.123 11.148-11.53 9.029-13.649-.354-.354-.644-.036-.644.707m-14.75 13.671c.963.252 2.537.252 3.5 0 .963-.251.175-.457-1.75-.457s-2.713.206-1.75.457m-17.025 2.315c-11.046 6.735-1.744 23.29 10.063 17.911 7.522-3.428 7.291-14.496-.387-18.466-3.749-1.939-5.776-1.823-9.676.555m8.197 1.262c4.763 2.713 6.335 6.491 4.522 10.869-2.259 5.454-8.568 6.395-13.021 1.942-2.943-2.943-3.904-2.937-1.641.01 3.269 4.257 10.695 4.866 13.962 1.143 4.18-4.761 2.704-12.518-2.821-14.827-4.981-2.081-5.454-1.673-1.001.863m-9.133.984c-2.475 2.704-3.724 6.363-2.443 7.155.511.315.908.016.884-.666-.131-3.617.563-4.947 3.52-6.75 1.804-1.1 2.549-1.983 1.674-1.985-.866-.002-2.502 1.008-3.635 2.246m1.366 1.579c-3.456 3.819-1.551 10.596 3.278 11.656 7.268 1.597 11.761-6.648 6.494-11.915-2.148-2.149-7.727-2.001-9.772.259M117 298.294c-3.187 1.612-5.246 5.876-4.423 9.157.857 3.413 2.23 3.261 1.82-.201-.199-1.684-.104-1.975.247-.75 2.143 7.5 12.53 5.118 11.001-2.523-.382-1.91-.242-2.846.37-2.468 1.685 1.042 1.11 7.068-.844 8.836-2.131 1.929-7.238 2.188-8.971.455-.803-.803-1.2-.838-1.2-.107 0 2.997 8.197 3.085 10.961.118 5.858-6.288-1.355-16.364-8.961-12.517m.387 1.147c-3.679 2.577-1.385 10.559 3.035 10.559 2.778 0 4.578-1.8 4.578-4.578 0-3.181-2.452-4.774-6.252-4.064-3.055.571-3.131.517-1.277-.898 1.085-.827 2.547-1.269 3.25-.982 3.54 1.445 4.517 1.5 2.279.127-3.115-1.912-3.117-1.912-5.613-.164" fill-rule="evenodd"/></svg>