<svg class="svg-icon" style="width: 1em; height: 1em;vertical-align: middle;fill: currentColor;overflow: hidden;" viewBox="0 0 1024 1024" version="1.1" xmlns="http://www.w3.org/2000/svg"><path d="M829 490.5h30.1c-2.7-38.1-11.6-75.2-26.5-110.5-17.5-41.4-42.6-78.7-74.6-110.6-32-32-69.2-57-110.6-74.6-35.2-14.9-72.2-23.7-110.2-26.4v30.1c75.4 5.9 145.6 38.1 199.6 92.1C791 344.8 823.2 415 829 490.5z"  /><path d="M760.1 507c-2.1-63.1-27.7-122.2-72.6-167.1-45.7-45.7-106.1-71.4-170.6-72.7V78.5h-10v188.8c-64.4 1.3-124.9 26.9-170.6 72.7-44.8 44.8-70.3 103.9-72.4 167H78.5v10h185.2c0.4 65.8 26.2 127.5 72.7 174.1 45.7 45.7 106.1 71.4 170.6 72.7v181.8h10V763.7c64.4-1.3 124.9-26.9 170.6-72.7 46.5-46.5 72.3-108.3 72.7-174.1h185.2v-10H760.1z m-93.7-145.9c39.2 39.2 61.7 90.7 63.8 145.9h-78.8c-2.5-39.7-21.7-78.1-56-103.6-23.1-17.1-50.2-26.6-78.3-27.5v-78.6c56.3 1.2 109.2 23.8 149.3 63.8zM507 459.4c-25.9 2.3-46.8 22.2-50.7 47.6h-53.6c1.5-19.9 8.5-39.7 21.3-56.9 17.5-23.5 43.1-38.8 72-43.1 3.7-0.5 7.3-0.9 11-1.1v53.5zM455.7 517c0.8 28.7 23.1 52.1 51.3 54.6v53.5c-21.7-0.9-42.6-8.3-60.4-21.6-28.5-21.1-43.7-53.6-44.2-86.5h53.3z m61.3 54.6c28.2-2.5 50.5-25.9 51.3-54.6h53.3c-0.3 22.3-7.3 44.7-21.6 63.9-17.5 23.5-43.1 38.8-72 43.1-3.7 0.5-7.3 0.9-11 1.1v-53.5z m50.7-64.6c-3.9-25.4-24.8-45.3-50.7-47.6v-53.5c21.7 0.9 42.6 8.3 60.4 21.6 26.4 19.6 41.5 49 43.9 79.5h-53.6zM357.6 361.1c40-40 92.9-62.6 149.4-63.9v78.6c-5.1 0.2-10.2 0.7-15.4 1.4-36.9 5.4-69.5 24.9-91.8 54.9-16.8 22.6-25.7 48.6-27.3 74.8h-78.7c2.2-55 24.6-106.5 63.8-145.8z m0 308.8c-40.9-40.9-63.5-95.1-63.9-152.9h78.7c0.5 42.1 19.9 83.6 56.3 110.6 23.1 17.1 50.2 26.6 78.3 27.5v78.6c-56.4-1.2-109.3-23.8-149.4-63.8z m308.8 0c-40 40-92.9 62.6-149.4 63.9v-78.6c5.1-0.2 10.2-0.7 15.4-1.4 36.9-5.4 69.5-24.9 91.8-54.9 18.3-24.6 27.2-53.3 27.5-81.8h78.7c-0.5 57.6-23.2 111.9-64 152.8z"  /><path d="M736.9 740.4c-54.1 54.1-124.3 86.3-199.9 92.2v30.1c38.1-2.7 75.2-11.6 110.5-26.5 41.4-17.5 78.7-42.6 110.6-74.6 32-32 57-69.2 74.6-110.6 14.9-35.3 23.8-72.3 26.5-110.5H829c-5.8 75.5-38 145.7-92.1 199.9zM287.1 290.6c54.2-54.2 124.5-86.4 200.1-92.2v-30.1c-38.2 2.7-75.4 11.5-110.7 26.5-41.4 17.5-78.7 42.6-110.6 74.6-32 32-57 69.2-74.6 110.6-14.9 35.3-23.8 72.3-26.5 110.5H195c5.8-75.5 38-145.7 92.1-199.9zM195 540.5h-30.1c2.7 38.1 11.6 75.2 26.5 110.5 17.5 41.4 42.6 78.7 74.6 110.6 32 32 69.2 57 110.6 74.6 35.3 14.9 72.3 23.8 110.5 26.5v-30.1c-75.5-5.8-145.7-38-199.9-92.2C233 686.2 200.8 616 195 540.5z"  /></svg>