<svg xmlns="http://www.w3.org/2000/svg" xmlns:xlink="http://www.w3.org/1999/xlink" version="1.1" width="256" height="256" viewBox="0 0 256 256" xml:space="preserve">

<defs>
</defs>
<g style="stroke: none; stroke-width: 0; stroke-dasharray: none; stroke-linecap: butt; stroke-linejoin: miter; stroke-miterlimit: 10; fill: none; fill-rule: nonzero; opacity: 1;" transform="translate(1.4065934065934016 1.4065934065934016) scale(2.81 2.81)" >
	<path d="M 70.391 57.547 c -0.553 0 -1 0.447 -1 1 V 85.07 c 0 1.615 -1.313 2.93 -2.929 2.93 H 6.932 c -1.615 0 -2.929 -1.314 -2.929 -2.93 V 4.929 C 4.003 3.314 5.317 2 6.932 2 h 59.53 c 1.615 0 2.929 1.314 2.929 2.929 v 9.835 c 0 0.552 0.447 1 1 1 s 1 -0.448 1 -1 V 4.929 C 71.391 2.211 69.18 0 66.462 0 H 6.932 C 4.214 0 2.003 2.211 2.003 4.929 V 85.07 c 0 2.718 2.211 4.93 4.929 4.93 h 59.53 c 2.718 0 4.929 -2.212 4.929 -4.93 V 58.547 C 71.391 57.994 70.943 57.547 70.391 57.547 z" style="stroke: none; stroke-width: 1; stroke-dasharray: none; stroke-linecap: butt; stroke-linejoin: miter; stroke-miterlimit: 10; fill: rgb(0,125,182); fill-rule: nonzero; opacity: 1;" transform=" matrix(1 0 0 1 0 0) " stroke-linecap="round" />
	<path d="M 30.744 42.373 c -0.408 -0.372 -1.042 -0.34 -1.413 0.067 l -7.916 8.703 l -2.257 -3.548 c -0.297 -0.465 -0.914 -0.602 -1.381 -0.307 c -0.466 0.297 -0.603 0.915 -0.307 1.381 l 2.96 4.651 c 0.167 0.263 0.448 0.433 0.758 0.459 c 0.028 0.003 0.057 0.004 0.085 0.004 c 0.28 0 0.549 -0.118 0.74 -0.327 l 8.797 -9.671 C 31.182 43.376 31.152 42.744 30.744 42.373 z" style="stroke: none; stroke-width: 1; stroke-dasharray: none; stroke-linecap: butt; stroke-linejoin: miter; stroke-miterlimit: 10; fill: rgb(0,125,182); fill-rule: nonzero; opacity: 1;" transform=" matrix(1 0 0 1 0 0) " stroke-linecap="round" />
	<path d="M 24.234 44.314 c 0.552 0 1 -0.448 1 -1 s -0.448 -1 -1 -1 H 13.896 c -0.552 0 -1 0.448 -1 1 v 13.574 c 0 0.553 0.448 1 1 1 h 14.508 c 0.552 0 1 -0.447 1 -1 v -5.353 c 0 -0.553 -0.448 -1 -1 -1 s -1 0.447 -1 1 v 4.353 H 14.896 V 44.314 H 24.234 z" style="stroke: none; stroke-width: 1; stroke-dasharray: none; stroke-linecap: butt; stroke-linejoin: miter; stroke-miterlimit: 10; fill: rgb(0,125,182); fill-rule: nonzero; opacity: 1;" transform=" matrix(1 0 0 1 0 0) " stroke-linecap="round" />
	<path d="M 48.498 46.73 c 0 -0.553 -0.447 -1 -1 -1 H 35.192 c -0.552 0 -1 0.447 -1 1 s 0.448 1 1 1 h 12.306 C 48.051 47.73 48.498 47.283 48.498 46.73 z" style="stroke: none; stroke-width: 1; stroke-dasharray: none; stroke-linecap: butt; stroke-linejoin: miter; stroke-miterlimit: 10; fill: rgb(0,125,182); fill-rule: nonzero; opacity: 1;" transform=" matrix(1 0 0 1 0 0) " stroke-linecap="round" />
	<path d="M 35.192 52.27 c -0.552 0 -1 0.447 -1 1 s 0.448 1 1 1 h 5.966 c 0.552 0 1 -0.447 1 -1 s -0.448 -1 -1 -1 H 35.192 z" style="stroke: none; stroke-width: 1; stroke-dasharray: none; stroke-linecap: butt; stroke-linejoin: miter; stroke-miterlimit: 10; fill: rgb(0,125,182); fill-rule: nonzero; opacity: 1;" transform=" matrix(1 0 0 1 0 0) " stroke-linecap="round" />
	<path d="M 30.744 63.922 c -0.408 -0.373 -1.042 -0.342 -1.413 0.066 l -7.916 8.703 l -2.257 -3.547 c -0.297 -0.465 -0.914 -0.603 -1.381 -0.307 c -0.466 0.297 -0.603 0.915 -0.307 1.381 l 2.96 4.65 c 0.167 0.263 0.448 0.433 0.758 0.459 c 0.028 0.003 0.057 0.004 0.085 0.004 c 0.28 0 0.549 -0.118 0.74 -0.327 l 8.797 -9.671 C 31.182 64.926 31.152 64.293 30.744 63.922 z" style="stroke: none; stroke-width: 1; stroke-dasharray: none; stroke-linecap: butt; stroke-linejoin: miter; stroke-miterlimit: 10; fill: rgb(0,125,182); fill-rule: nonzero; opacity: 1;" transform=" matrix(1 0 0 1 0 0) " stroke-linecap="round" />
	<path d="M 12.896 78.438 c 0 0.553 0.448 1 1 1 h 14.508 c 0.552 0 1 -0.447 1 -1 v -5.354 c 0 -0.553 -0.448 -1 -1 -1 s -1 0.447 -1 1 v 4.354 H 14.896 V 65.863 h 9.338 c 0.552 0 1 -0.447 1 -1 s -0.448 -1 -1 -1 H 13.896 c -0.552 0 -1 0.447 -1 1 V 78.438 z" style="stroke: none; stroke-width: 1; stroke-dasharray: none; stroke-linecap: butt; stroke-linejoin: miter; stroke-miterlimit: 10; fill: rgb(0,125,182); fill-rule: nonzero; opacity: 1;" transform=" matrix(1 0 0 1 0 0) " stroke-linecap="round" />
	<path d="M 86.332 18.053 l -5.235 -3.546 c -1.732 -1.173 -4.092 -0.717 -5.264 1.012 l -3.982 5.879 c 0 0 0 0 0 0 l -28.143 41.55 c -0.008 0.012 -0.008 0.026 -0.016 0.038 c -0.062 0.1 -0.112 0.207 -0.136 0.325 l 0 0.002 c 0 0.001 0 0.001 0 0.002 L 40.516 78.41 c -0.08 0.395 0.086 0.799 0.419 1.025 c 0.169 0.114 0.365 0.172 0.561 0.172 c 0.19 0 0.381 -0.054 0.547 -0.163 l 12.895 -8.423 c 0.001 0 0.001 -0.001 0.001 -0.001 c 0.003 -0.002 0.005 -0.005 0.009 -0.007 c 0.096 -0.065 0.174 -0.148 0.241 -0.238 c 0.008 -0.011 0.022 -0.018 0.03 -0.03 l 32.126 -47.429 C 88.517 21.586 88.063 19.225 86.332 18.053 z M 79.976 16.163 l 5.235 3.546 c 0.816 0.554 1.031 1.669 0.478 2.486 l -3.422 5.051 l -8.199 -5.554 l 3.422 -5.051 C 78.043 15.823 79.157 15.609 79.976 16.163 z M 72.946 23.348 l 8.199 5.554 L 54.123 68.796 l -6.697 -4.536 l -1.503 -1.018 L 72.946 23.348 z M 42.947 76.465 l 2.271 -11.285 l 2.241 1.518 l 5.126 3.472 L 42.947 76.465 z" style="stroke: none; stroke-width: 1; stroke-dasharray: none; stroke-linecap: butt; stroke-linejoin: miter; stroke-miterlimit: 10; fill: rgb(0,125,182); fill-rule: nonzero; opacity: 1;" transform=" matrix(1 0 0 1 0 0) " stroke-linecap="round" />
	<path d="M 52.094 62.963 c 0.172 0.116 0.366 0.172 0.56 0.172 c 0.32 0 0.636 -0.153 0.829 -0.439 l 21.601 -31.89 c 0.31 -0.458 0.189 -1.079 -0.268 -1.389 c -0.456 -0.309 -1.079 -0.19 -1.389 0.267 L 51.826 61.574 C 51.517 62.031 51.636 62.653 52.094 62.963 z" style="stroke: none; stroke-width: 1; stroke-dasharray: none; stroke-linecap: butt; stroke-linejoin: miter; stroke-miterlimit: 10; fill: rgb(0,125,182); fill-rule: nonzero; opacity: 1;" transform=" matrix(1 0 0 1 0 0) " stroke-linecap="round" />
	<path d="M 18.165 23.142 c 0.552 0 1 -0.448 1 -1 V 11.498 h 2.673 c 0.552 0 1 -0.448 1 -1 s -0.448 -1 -1 -1 h -7.345 c -0.552 0 -1 0.448 -1 1 s 0.448 1 1 1 h 2.672 v 10.644 C 17.165 22.694 17.613 23.142 18.165 23.142 z" style="stroke: none; stroke-width: 1; stroke-dasharray: none; stroke-linecap: butt; stroke-linejoin: miter; stroke-miterlimit: 10; fill: rgb(0,125,182); fill-rule: nonzero; opacity: 1;" transform=" matrix(1 0 0 1 0 0) " stroke-linecap="round" />
	<path d="M 33.067 11.498 c 0.552 0 1 -0.448 1 -1 s -0.448 -1 -1 -1 h -5.89 c -0.552 0 -1 0.448 -1 1 v 11.644 c 0 0.552 0.448 1 1 1 h 5.89 c 0.552 0 1 -0.448 1 -1 s -0.448 -1 -1 -1 h -4.89 V 17.32 h 3.104 c 0.552 0 1 -0.448 1 -1 s -0.448 -1 -1 -1 h -3.104 v -3.822 H 33.067 z" style="stroke: none; stroke-width: 1; stroke-dasharray: none; stroke-linecap: butt; stroke-linejoin: miter; stroke-miterlimit: 10; fill: rgb(0,125,182); fill-rule: nonzero; opacity: 1;" transform=" matrix(1 0 0 1 0 0) " stroke-linecap="round" />
	<path d="M 40.881 11.498 h 2.727 c 0.552 0 1 -0.448 1 -1 s -0.448 -1 -1 -1 h -2.727 c -1.667 0 -3.022 1.356 -3.022 3.022 v 1.777 c 0 1.667 1.356 3.022 3.022 3.022 h 2.116 c 0.563 0 1.022 0.458 1.022 1.022 v 1.777 c 0 0.563 -0.458 1.022 -1.022 1.022 h -3.8 c -0.552 0 -1 0.448 -1 1 s 0.448 1 1 1 h 3.8 c 1.667 0 3.022 -1.355 3.022 -3.022 v -1.777 c 0 -1.667 -1.355 -3.022 -3.022 -3.022 h -2.116 c -0.564 0 -1.022 -0.458 -1.022 -1.022 v -1.777 C 39.858 11.957 40.317 11.498 40.881 11.498 z" style="stroke: none; stroke-width: 1; stroke-dasharray: none; stroke-linecap: butt; stroke-linejoin: miter; stroke-miterlimit: 10; fill: rgb(0,125,182); fill-rule: nonzero; opacity: 1;" transform=" matrix(1 0 0 1 0 0) " stroke-linecap="round" />
	<path d="M 58.063 9.498 h -7.346 c -0.553 0 -1 0.448 -1 1 s 0.447 1 1 1 h 2.673 v 10.644 c 0 0.552 0.447 1 1 1 s 1 -0.448 1 -1 V 11.498 h 2.673 c 0.553 0 1 -0.448 1 -1 S 58.616 9.498 58.063 9.498 z" style="stroke: none; stroke-width: 1; stroke-dasharray: none; stroke-linecap: butt; stroke-linejoin: miter; stroke-miterlimit: 10; fill: rgb(0,125,182); fill-rule: nonzero; opacity: 1;" transform=" matrix(1 0 0 1 0 0) " stroke-linecap="round" />
	<path d="M 59.063 30.512 c 0 -0.552 -0.447 -1 -1 -1 H 14.493 c -0.552 0 -1 0.448 -1 1 s 0.448 1 1 1 h 43.571 C 58.616 31.512 59.063 31.064 59.063 30.512 z" style="stroke: none; stroke-width: 1; stroke-dasharray: none; stroke-linecap: butt; stroke-linejoin: miter; stroke-miterlimit: 10; fill: rgb(0,125,182); fill-rule: nonzero; opacity: 1;" transform=" matrix(1 0 0 1 0 0) " stroke-linecap="round" />
</g>
</svg>